<svg xmlns:dc="http://purl.org/dc/elements/1.1/" xmlns:cc="http://creativecommons.org/ns#" xmlns:rdf="http://www.w3.org/1999/02/22-rdf-syntax-ns#" xmlns:svg="http://www.w3.org/2000/svg" xmlns="http://www.w3.org/2000/svg" xmlns:sodipodi="http://sodipodi.sourceforge.net/DTD/sodipodi-0.dtd" xmlns:inkscape="http://www.inkscape.org/namespaces/inkscape" width="210mm" height="297mm" viewBox="0 0 210 297" version="1.1" id="svg8" inkscape:version="1.0.1 (3bc2e813f5, 2020-09-07)" sodipodi:docname="template.svg">
  <defs id="defs2"/>
  <sodipodi:namedview id="base" pagecolor="#ffffff" bordercolor="#666666" borderopacity="1.0" inkscape:pageopacity="0.0" inkscape:pageshadow="2" inkscape:zoom="0.35" inkscape:cx="-150" inkscape:cy="560" inkscape:document-units="mm" inkscape:current-layer="layer1" inkscape:document-rotation="0" showgrid="false" inkscape:window-width="1680" inkscape:window-height="987" inkscape:window-x="2992" inkscape:window-y="13" inkscape:window-maximized="1"/>
  <metadata id="metadata5">
    <rdf:RDF>
      <cc:Work rdf:about="">
        <dc:format>image/svg+xml</dc:format>
        <dc:type rdf:resource="http://purl.org/dc/dcmitype/StillImage"/>
        <dc:title/>
      </cc:Work>
    </rdf:RDF>
  </metadata>
  <g inkscape:label="Layer 1" inkscape:groupmode="layer" id="layer1">
    <path d="M0, 0.5 h1m1,0h1m1,0h1m1,0h1m1,0h1m1,0m-10,1h2m1,0h4m1,0h2m-10,1h1m3,0h5m1,0m-10,1h2m1,0h2m1,0h2m1,0h1m-10,1h1m2,0h1m6,0m-10,1h1m2,0h2m1,0h1m1,0h2m-10,1h1m4,0h1m1,0h1m2,0m-10,1h2m1,0h7m-10,1h1m1,0h1m3,0h1m1,0h1m1,0m-10,1h10m-10,1" stroke="#0000FF" stroke-width="1" transform="matrix(8.9, 0, 0, 8.9, 47.625, 54.42857)"/><path d="M0, 0.5 h1m1,0h1m1,0h1m1,0h1m1,0h1m1,0m-10,1h2m6,0h2m-10,1h1m3,0h2m4,0m-10,1h2m1,0h1m3,0h1m1,0h1m-10,1h1m3,0h3m3,0m-10,1h1m3,0h1m1,0h1m1,0h2m-10,1h1m1,0h1m1,0h2m1,0h1m2,0m-10,1h1m1,0h3m1,0h1m2,0h1m-10,1h1m4,0h3m2,0m-10,1h10m-10,1" stroke="#0000FF" stroke-width="1" transform="matrix(4.288690600000001, 0, 0, 4.288690600000001, 71.916664, 226.13095)"/></g>
<svg:g/></svg>